<svg width="19" height="18" viewBox="0 0 19 18" fill="none" xmlns="http://www.w3.org/2000/svg">
<path fill-rule="evenodd" clip-rule="evenodd" d="M4.58245 4.39024H3.20432C2.74522 4.39026 2.30318 4.5375 1.9672 4.80233C1.63123 5.06716 1.42628 5.4299 1.39361 5.81751L0.5046 16.3541C0.486866 16.5646 0.520529 16.7758 0.603491 16.9748C0.686453 17.1738 0.816936 17.3561 0.98681 17.5106C1.15668 17.665 1.36231 17.7881 1.59087 17.8723C1.81943 17.9565 2.06603 18 2.31531 18H16.6848C16.934 17.9999 17.1805 17.9563 17.409 17.8721C17.6375 17.7878 17.8431 17.6647 18.0129 17.5103C18.1828 17.3559 18.3132 17.1736 18.3963 16.9747C18.4793 16.7758 18.5131 16.5645 18.4955 16.3541L17.6065 5.81751C17.5738 5.4299 17.3688 5.06716 17.0329 4.80233C16.6969 4.5375 16.2549 4.39026 15.7958 4.39024H14.4275V4.17073C14.4275 3.06458 13.9083 2.00374 12.9843 1.22158C12.0602 0.439415 10.8069 0 9.50004 0C6.87812 0 4.45485 1.76751 4.57259 4.17073L4.58245 4.39024ZM14.4275 5.70732V9C14.4275 9.17465 14.3455 9.34216 14.1996 9.46566C14.0537 9.58916 13.8558 9.65854 13.6495 9.65854C13.4431 9.65854 13.2452 9.58916 13.0993 9.46566C12.9534 9.34216 12.8714 9.17465 12.8714 9V5.70732H6.12863V9C6.12863 9.17465 6.04666 9.34216 5.90075 9.46566C5.75485 9.58916 5.55695 9.65854 5.35061 9.65854C5.14427 9.65854 4.94638 9.58916 4.80047 9.46566C4.65456 9.34216 4.57259 9.17465 4.57259 9C4.57259 9 4.64002 7.46122 4.61772 5.70732H3.20432C3.13883 5.7074 3.07581 5.72844 3.0279 5.76622C2.97998 5.80401 2.95073 5.85574 2.94602 5.91102L2.05649 16.4476C2.05392 16.4777 2.05871 16.5079 2.07055 16.5364C2.0824 16.5648 2.10105 16.5909 2.12534 16.613C2.14962 16.6351 2.17903 16.6527 2.21171 16.6647C2.2444 16.6767 2.27966 16.6829 2.31531 16.6829H16.6848C16.7204 16.6828 16.7556 16.6765 16.7882 16.6645C16.8208 16.6524 16.8501 16.6348 16.8744 16.6127C16.8986 16.5907 16.9173 16.5646 16.9292 16.5362C16.9411 16.5078 16.946 16.4777 16.9436 16.4476L16.0541 5.91102C16.0493 5.85574 16.0201 5.80401 15.9722 5.76622C15.9243 5.72844 15.8612 5.7074 15.7958 5.70732H14.4275ZM12.8714 4.39024V4.17073C12.8714 3.41389 12.5162 2.68806 11.884 2.15289C11.2517 1.61773 10.3942 1.31707 9.50004 1.31707C8.60589 1.31707 7.74835 1.61773 7.11609 2.15289C6.48383 2.68806 6.12863 3.41389 6.12863 4.17073V4.39024H12.8714Z" fill="white"/>
</svg>
