<svg width="37" height="38" viewBox="0 0 37 38" fill="none" xmlns="http://www.w3.org/2000/svg">
<path fill-rule="evenodd" clip-rule="evenodd" d="M30.6742 0.885144C29.6155 0.2923 28.4883 0.232596 27.2969 0.381502C26.1651 0.522952 24.7883 0.880813 23.1337 1.31089L19.2653 2.31618C17.6114 2.74596 16.2342 3.10382 15.1805 3.53041C14.0726 3.97895 13.1147 4.58161 12.4934 5.62541C11.8681 6.6758 11.8061 7.79869 11.9619 8.97156C12.1088 10.0774 12.4796 11.4194 12.9213 13.0181L13.9612 16.7822C14.4031 18.3819 14.7737 19.7235 15.2163 20.7516C15.6861 21.8434 16.3138 22.7728 17.3787 23.369C18.4373 23.9619 19.5645 24.0217 20.756 23.8727C21.8876 23.7313 23.2646 23.3734 24.919 22.9433L28.7876 21.9381C30.4415 21.5082 31.8187 21.1503 32.8723 20.7239C33.9801 20.2752 34.938 19.6726 35.5594 18.6287C36.1846 17.5784 36.2467 16.4554 36.0909 15.2826C35.9439 14.1768 35.5732 12.8349 35.1314 11.2361L34.0914 7.47194C33.6497 5.87237 33.279 4.53062 32.8366 3.50249C32.3666 2.41081 31.7391 1.48146 30.6742 0.885144ZM23.7629 4.11785C25.5356 3.65714 26.7301 3.34971 27.6534 3.23431C28.5381 3.12373 28.9617 3.22123 29.2695 3.39362C29.5712 3.56254 29.8591 3.85701 30.1958 4.63907C30.5508 5.46389 30.8713 6.61228 31.3472 8.33467L32.3331 11.9036C32.8092 13.6265 33.1233 14.7759 33.241 15.6614C33.3526 16.5022 33.2527 16.8832 33.089 17.1583C32.9213 17.4398 32.6173 17.7252 31.7934 18.0589C30.9353 18.4064 29.7429 18.7192 27.9696 19.18L24.29 20.1364C22.5171 20.5972 21.3226 20.9046 20.3994 21.02C19.5146 21.1306 19.0912 21.033 18.7832 20.8605C18.4817 20.6917 18.1937 20.3972 17.8571 19.6151C17.5021 18.7903 17.1815 17.6419 16.7056 15.9195L15.7196 12.3506C15.2437 10.6278 14.9295 9.47833 14.8118 8.59292C14.7001 7.752 14.8001 7.37099 14.9638 7.09599C15.1315 6.81435 15.4354 6.5289 16.2594 6.19529C17.1176 5.84784 18.31 5.53496 20.0831 5.07415L23.7629 4.11785Z" fill="#020A13"/>
<path fill-rule="evenodd" clip-rule="evenodd" d="M2.13468 5.05566C1.36968 4.84343 0.577442 5.29152 0.36519 6.05652C0.152939 6.82154 0.601036 7.61378 1.36605 7.82601L4.63148 8.732C5.44721 8.95832 6.05468 9.57452 6.2622 10.3257L10.0022 23.8634C9.85852 23.8915 9.7149 23.9243 9.57153 23.9617C5.78219 24.9465 3.46663 28.7583 4.50686 32.5236C5.54209 36.2707 9.47829 38.4319 13.2526 37.451C16.5557 36.5927 18.739 33.5862 18.5559 30.335L34.6952 26.1407C35.4636 25.941 35.9247 25.1561 35.725 24.3877C35.5253 23.6194 34.7404 23.1584 33.972 23.3581L17.799 27.5612C16.8248 25.6688 15.0353 24.3527 12.9949 23.8994L9.03339 9.56009C8.54823 7.80398 7.15747 6.44923 5.4001 5.96165L2.13468 5.05566ZM10.2947 26.7441C12.6171 26.1405 14.9477 27.4885 15.5462 29.6546C16.1396 31.8026 14.8369 34.0688 12.5295 34.6684C10.207 35.2719 7.87645 33.9239 7.27805 31.7579C6.68465 29.6101 7.9872 27.3438 10.2947 26.7441Z" fill="#020A13"/>
</svg>
