<svg width="36" height="42" viewBox="0 0 36 42" fill="none" xmlns="http://www.w3.org/2000/svg">
<path fill-rule="evenodd" clip-rule="evenodd" d="M27.358 7.55449C26.9223 4.61292 23.7483 2.8598 21.0215 4.05959C20.9926 4.07227 20.9634 4.08401 20.9338 4.09478C19.0352 4.78517 17.1061 4.78517 15.2075 4.09478L15.1827 4.08551C12.2542 2.95914 9.21002 4.78068 8.78206 7.56241C8.77533 7.60614 8.76658 7.64954 8.75585 7.69247L8.63568 8.17314C8.41861 9.99231 7.35167 11.727 5.94286 12.792L5.24052 13.3538C3.08186 15.0807 3.08283 18.3112 5.11191 20.0334L5.79913 20.5832C7.20793 21.6482 8.27486 23.3828 8.49193 25.202L8.6121 25.6827C8.62348 25.7282 8.63263 25.7742 8.6395 25.8207C9.07529 28.7622 12.2493 30.5154 14.9761 29.3156C15.0049 29.3029 15.0342 29.2911 15.0638 29.2804C16.9624 28.59 18.8914 28.59 20.79 29.2804L20.8148 29.2896C23.7434 30.416 26.7875 28.5945 27.2155 25.8127C27.2222 25.769 27.231 25.7256 27.2417 25.6827L27.3619 25.202C27.5799 23.3746 28.6555 21.6325 30.0738 20.5688C30.095 20.5529 30.1168 20.5375 30.1389 20.5227L30.9612 19.9746C33.1912 18.2441 33.18 15.0909 30.9276 13.3748L30.9008 13.3538L30.1984 12.792C28.7896 11.727 27.7227 9.99232 27.5056 8.17314L27.3854 7.69247C27.3741 7.64695 27.3649 7.6009 27.358 7.55449ZM30.1908 7.05992C29.4381 2.30059 24.3384 -0.504524 19.9114 1.40723C18.6651 1.85109 17.4479 1.84766 16.2012 1.39693C11.6808 -0.332406 6.71098 2.40941 5.95145 7.05615L5.82294 7.57018C5.80605 7.63776 5.79409 7.70647 5.78716 7.77579C5.68643 8.78306 5.05175 9.86659 4.19877 10.5063C4.1868 10.5153 4.17496 10.5245 4.16327 10.5338L3.44452 11.1088C-0.142284 13.9783 -0.147796 19.3629 3.27283 22.2434C3.28205 22.2511 3.29136 22.2588 3.30077 22.2663L4.01952 22.8413C4.03121 22.8507 4.04305 22.8598 4.05502 22.8688C4.908 23.5086 5.54268 24.5921 5.64341 25.5994C5.65034 25.6687 5.6623 25.7374 5.67919 25.805L5.80676 26.3152C6.55944 31.0746 11.6591 33.8797 16.0862 31.9679C17.3324 31.5241 18.5496 31.5275 19.7962 31.9782C24.3167 33.7076 29.2865 30.9658 30.0461 26.319L30.1746 25.805C30.1915 25.7374 30.2035 25.6687 30.2104 25.5994C30.31 24.6036 30.9314 23.5332 31.7697 22.8909L32.5962 22.3399C32.6213 22.3231 32.6459 22.3056 32.67 22.2873C36.439 19.4156 36.4438 13.9769 32.6842 11.0988L31.978 10.5338C31.9663 10.5245 31.9545 10.5153 31.9425 10.5063C31.0895 9.86659 30.4549 8.78306 30.3541 7.77579C30.3472 7.70647 30.3352 7.63776 30.3184 7.57018L30.1908 7.05992Z" fill="#020A13"/>
<path fill-rule="evenodd" clip-rule="evenodd" d="M9.37377 28.1876C10.1677 28.1876 10.8113 28.8312 10.8113 29.6251V37.3616L17.3559 34.0893C17.7606 33.887 18.2369 33.887 18.6416 34.0893L25.1863 37.3616V29.6251C25.1863 28.8312 25.8299 28.1876 26.6238 28.1876C27.4177 28.1876 28.0613 28.8312 28.0613 29.6251V39.6876C28.0613 40.1858 27.8033 40.6485 27.3795 40.9104C26.9557 41.1723 26.4265 41.1961 25.9809 40.9733L17.9988 36.9822L10.0166 40.9733C9.57103 41.1961 9.04183 41.1723 8.61803 40.9104C8.19423 40.6485 7.93627 40.1858 7.93627 39.6876V29.6251C7.93627 28.8312 8.57986 28.1876 9.37377 28.1876Z" fill="#020A13"/>
<path fill-rule="evenodd" clip-rule="evenodd" d="M17.9988 9.50007C18.7927 9.50007 19.4363 10.1437 19.4363 10.9376V12.3751C19.4363 13.169 18.7927 13.8126 17.9988 13.8126C17.2049 13.8126 16.5613 13.169 16.5613 12.3751V10.9376C16.5613 10.1437 17.2049 9.50007 17.9988 9.50007Z" fill="#020A13"/>
<path fill-rule="evenodd" clip-rule="evenodd" d="M17.9988 19.5626C18.7927 19.5626 19.4363 20.2062 19.4363 21.0001V22.4376C19.4363 23.2315 18.7927 23.8751 17.9988 23.8751C17.2049 23.8751 16.5613 23.2315 16.5613 22.4376V21.0001C16.5613 20.2062 17.2049 19.5626 17.9988 19.5626Z" fill="#020A13"/>
<path fill-rule="evenodd" clip-rule="evenodd" d="M13.6863 14.5313C13.6863 12.5874 15.3361 10.9376 17.28 10.9376H19.4363C20.2302 10.9376 20.8738 11.5812 20.8738 12.3751C20.8738 13.169 20.2302 13.8126 19.4363 13.8126H17.28C16.9239 13.8126 16.5613 14.1752 16.5613 14.5313C16.5613 14.8874 16.9239 15.2501 17.28 15.2501H18.7175C20.6614 15.2501 22.3113 16.8999 22.3113 18.8438C22.3113 20.7877 20.6614 22.4376 18.7175 22.4376H16.5613C15.7674 22.4376 15.1238 21.794 15.1238 21.0001C15.1238 20.2062 15.7674 19.5626 16.5613 19.5626H18.7175C19.0736 19.5626 19.4363 19.1999 19.4363 18.8438C19.4363 18.4877 19.0736 18.1251 18.7175 18.1251H17.28C15.3361 18.1251 13.6863 16.4752 13.6863 14.5313Z" fill="#020A13"/>
</svg>
